<svg xmlns="http://www.w3.org/2000/svg" viewBox="0 0 640 400" role="img" aria-label="Analytics dashboard preview">
  <defs><linearGradient id="bg" x1="0%" y1="0%" x2="100%" y2="100%"><stop offset="0%" stop-color="#1c1917"/><stop offset="100%" stop-color="#292524"/></linearGradient></defs>
  <rect width="640" height="400" fill="url(#bg)"/>
  <rect x="40" y="40" width="120" height="320" rx="10" fill="#fff" opacity=".08"/>
  <rect x="60" y="70" width="80" height="8" rx="2" fill="#f5c518"/>
  <rect x="60" y="100" width="80" height="6" rx="2" fill="#fff" opacity=".3"/>
  <rect x="60" y="120" width="80" height="6" rx="2" fill="#fff" opacity=".2"/>
  <rect x="180" y="40" width="420" height="80" rx="10" fill="#fff" opacity=".1"/>
  <rect x="200" y="60" width="140" height="40" rx="6" fill="#16a34a" opacity=".5"/>
  <rect x="360" y="60" width="100" height="40" rx="6" fill="#f5c518" opacity=".4"/>
  <rect x="180" y="140" width="200" height="220" rx="10" fill="#fff" opacity=".1"/>
  <polyline points="200,320 240,260 280,280 320,200 360,220" fill="none" stroke="#f5c518" stroke-width="4" stroke-linecap="round"/>
  <rect x="400" y="140" width="200" height="100" rx="10" fill="#16a34a" opacity=".3"/>
  <rect x="420" y="200" width="30" height="30" fill="#f5c518"/><rect x="460" y="180" width="30" height="50" fill="#4ade80"/><rect x="500" y="160" width="30" height="70" fill="#f5c518"/>
  <rect x="400" y="260" width="200" height="100" rx="10" fill="#fff" opacity=".08"/>
  <rect x="420" y="290" width="160" height="8" rx="2" fill="#fff" opacity=".25"/>
  <rect x="420" y="310" width="120" height="8" rx="2" fill="#fff" opacity=".15"/>
</svg>
