<svg xmlns="http://www.w3.org/2000/svg" viewBox="0 0 640 400" role="img" aria-label="Healthcare portal preview">
  <defs><linearGradient id="bg" x1="0%" y1="0%" x2="0%" y2="100%"><stop offset="0%" stop-color="#ecfdf5"/><stop offset="100%" stop-color="#fef9c3"/></linearGradient></defs>
  <rect width="640" height="400" fill="url(#bg)"/>
  <rect x="40" y="50" width="560" height="50" rx="10" fill="#fff"/>
  <rect x="60" y="68" width="100" height="14" rx="4" fill="#16a34a"/>
  <circle cx="520" cy="75" r="18" fill="#f5c518" opacity=".6"/>
  <rect x="40" y="120" width="260" height="240" rx="12" fill="#fff"/>
  <rect x="60" y="140" width="80" height="80" rx="40" fill="#16a34a" opacity=".2"/>
  <path d="M95 175 L105 185 L125 165" stroke="#16a34a" stroke-width="4" fill="none" stroke-linecap="round"/>
  <rect x="160" y="150" width="120" height="10" rx="3" fill="#1c1917" opacity=".15"/>
  <rect x="160" y="170" width="90" height="8" rx="3" fill="#1c1917" opacity=".1"/>
  <rect x="60" y="240" width="220" height="48" rx="8" fill="#16a34a" opacity=".15"/>
  <rect x="60" y="300" width="220" height="40" rx="8" fill="#f5c518" opacity=".2"/>
  <rect x="320" y="120" width="280" height="110" rx="12" fill="#fff"/>
  <rect x="340" y="140" width="240" height="12" rx="4" fill="#16a34a" opacity=".3"/>
  <rect x="340" y="165" width="200" height="8" rx="3" fill="#1c1917" opacity=".1"/>
  <rect x="320" y="250" width="135" height="110" rx="12" fill="#fff"/>
  <rect x="465" y="250" width="135" height="110" rx="12" fill="#fff"/>
  <rect x="340" y="280" width="90" height="50" rx="6" fill="#f5c518" opacity=".35"/>
</svg>
