<svg xmlns="http://www.w3.org/2000/svg" viewBox="0 0 640 400" role="img" aria-label="Learning management system preview">
  <rect width="640" height="400" fill="#fafaf9"/>
  <rect x="40" y="40" width="560" height="56" rx="10" fill="#1c1917" opacity=".9"/>
  <rect x="60" y="58" width="140" height="20" rx="4" fill="#f5c518"/>
  <rect x="40" y="116" width="200" height="244" rx="10" fill="#fff" stroke="#e7e5e4"/>
  <rect x="60" y="136" width="160" height="70" rx="6" fill="#16a34a" opacity=".2"/>
  <rect x="60" y="220" width="120" height="8" rx="2" fill="#1c1917" opacity=".15"/>
  <rect x="60" y="240" width="160" height="6" rx="2" fill="#16a34a" opacity=".4"/>
  <rect x="60" y="260" width="140" height="6" rx="2" fill="#1c1917" opacity=".1"/>
  <rect x="260" y="116" width="340" height="110" rx="10" fill="#fff" stroke="#e7e5e4"/>
  <rect x="280" y="136" width="80" height="70" rx="6" fill="#f5c518" opacity=".35"/>
  <rect x="380" y="150" width="200" height="10" rx="3" fill="#1c1917" opacity=".15"/>
  <rect x="380" y="170" width="160" height="8" rx="3" fill="#1c1917" opacity=".1"/>
  <rect x="260" y="246" width="160" height="114" rx="10" fill="#fff" stroke="#e7e5e4"/>
  <rect x="440" y="246" width="160" height="114" rx="10" fill="#fff" stroke="#e7e5e4"/>
  <rect x="280" y="300" width="120" height="8" rx="3" fill="#16a34a" opacity=".5"/>
</svg>
