<svg xmlns="http://www.w3.org/2000/svg" viewBox="0 0 640 400" role="img" aria-label="E-commerce project preview">
  <defs><linearGradient id="bg" x1="0%" y1="0%" x2="100%" y2="100%"><stop offset="0%" stop-color="#fde68a"/><stop offset="100%" stop-color="#bbf7d0"/></linearGradient></defs>
  <rect width="640" height="400" fill="url(#bg)"/>
  <rect x="40" y="40" width="560" height="48" rx="8" fill="#1c1917" opacity=".9"/>
  <rect x="60" y="56" width="120" height="16" rx="4" fill="#f5c518"/>
  <rect x="420" y="56" width="80" height="16" rx="4" fill="#fff" opacity=".3"/>
  <rect x="520" y="56" width="60" height="16" rx="4" fill="#16a34a"/>
  <rect x="40" y="108" width="170" height="252" rx="10" fill="#fff" opacity=".95"/>
  <rect x="58" y="128" width="134" height="90" rx="6" fill="#f5c518" opacity=".4"/>
  <rect x="58" y="230" width="90" height="10" rx="3" fill="#1c1917" opacity=".2"/>
  <rect x="58" y="250" width="60" height="10" rx="3" fill="#16a34a" opacity=".6"/>
  <rect x="230" y="108" width="370" height="120" rx="10" fill="#fff" opacity=".95"/>
  <rect x="250" y="128" width="100" height="80" rx="6" fill="#16a34a" opacity=".25"/>
  <rect x="370" y="128" width="100" height="80" rx="6" fill="#f5c518" opacity=".35"/>
  <rect x="490" y="128" width="90" height="80" rx="6" fill="#1c1917" opacity=".1"/>
  <rect x="230" y="248" width="370" height="112" rx="10" fill="#fff" opacity=".95"/>
  <rect x="250" y="268" width="330" height="12" rx="4" fill="#1c1917" opacity=".15"/>
  <rect x="250" y="292" width="280" height="12" rx="4" fill="#1c1917" opacity=".1"/>
  <rect x="250" y="316" width="100" height="28" rx="6" fill="#16a34a"/>
</svg>
