<svg xmlns="http://www.w3.org/2000/svg" viewBox="0 0 640 400" role="img" aria-label="Team chat app preview">
  <rect width="640" height="400" fill="#f5f5f4"/>
  <rect x="40" y="40" width="180" height="320" rx="12" fill="#fff" stroke="#e7e5e4"/>
  <circle cx="80" cy="80" r="16" fill="#16a34a"/><rect x="105" y="72" width="80" height="16" rx="4" fill="#1c1917" opacity=".15"/>
  <rect x="60" y="120" width="140" height="36" rx="8" fill="#16a34a" opacity=".15"/>
  <rect x="60" y="170" width="100" height="28" rx="8" fill="#f5c518" opacity=".25"/>
  <rect x="100" y="210" width="100" height="28" rx="8" fill="#e7e5e4"/>
  <rect x="240" y="40" width="360" height="320" rx="12" fill="#fff" stroke="#e7e5e4"/>
  <rect x="260" y="60" width="200" height="14" rx="4" fill="#1c1917" opacity=".2"/>
  <rect x="260" y="100" width="220" height="48" rx="10" fill="#16a34a" opacity=".12"/>
  <rect x="380" y="160" width="180" height="40" rx="10" fill="#f5c518" opacity=".2"/>
  <rect x="260" y="220" width="200" height="40" rx="10" fill="#e7e5e4"/>
  <rect x="260" y="310" width="320" height="36" rx="18" fill="#fafaf9" stroke="#16a34a" stroke-width="2"/>
</svg>
